<svg xmlns="http://www.w3.org/2000/svg" viewBox="0 0 48 48"><defs><style>.cls-1{fill:#ffffff;}</style></defs><title>Asset 201</title><g id="Layer_2" data-name="Layer 2"><g id="_1" data-name="1"><rect class="cls-1" x="45" y="14" width="2" height="33"/><rect class="cls-1" x="1" y="14" width="2" height="33"/><rect class="cls-1" x="32" y="8.5" width="2" height="38.5"/><rect class="cls-1" x="14" y="8.5" width="2" height="38.5"/><rect class="cls-1" y="46" width="48" height="2"/><rect class="cls-1" x="33" y="13" width="15" height="2"/><rect class="cls-1" y="13" width="15" height="2"/><path class="cls-1" d="M35.36,11.77,24,2.3,12.64,11.77l-1.28-1.54,12-10a1,1,0,0,1,1.28,0l12,10Z"/><path class="cls-1" d="M28,48H20a1,1,0,0,1-1-1V37a5,5,0,0,1,10,0V47A1,1,0,0,1,28,48Zm-7-2h6V37a3,3,0,0,0-6,0Z"/><path class="cls-1" d="M28,28H20a1,1,0,0,1-1-1V23a5,5,0,0,1,10,0v4A1,1,0,0,1,28,28Zm-7-2h6V23a3,3,0,0,0-6,0Z"/><path class="cls-1" d="M11,42H6a1,1,0,0,1-1-1V35.5a3.5,3.5,0,0,1,7,0V41A1,1,0,0,1,11,42ZM7,40h3V35.5a1.5,1.5,0,0,0-3,0Z"/><path class="cls-1" d="M11,28H6a1,1,0,0,1-1-1V21.5a3.5,3.5,0,0,1,7,0V27A1,1,0,0,1,11,28ZM7,26h3V21.5a1.5,1.5,0,0,0-3,0Z"/><path class="cls-1" d="M42,42H37a1,1,0,0,1-1-1V35.5a3.5,3.5,0,0,1,7,0V41A1,1,0,0,1,42,42Zm-4-2h3V35.5a1.5,1.5,0,0,0-3,0Z"/><path class="cls-1" d="M42,28H37a1,1,0,0,1-1-1V21.5a3.5,3.5,0,0,1,7,0V27A1,1,0,0,1,42,28Zm-4-2h3V21.5a1.5,1.5,0,0,0-3,0Z"/><path class="cls-1" d="M24,15a4,4,0,1,1,4-4A4,4,0,0,1,24,15Zm0-6a2,2,0,1,0,2,2A2,2,0,0,0,24,9Z"/></g></g></svg>